# File created by Blade
# Date/Time:  Wed Jan 21 14:28:11 2015
# Frame Rate: 120.000 fps
#------------------------------------------------------
:FULLY-SPECIFIED
:DEGREES
301
root 18.811489 35.536875 -21.366992 -174.075697 -1.203207 -178.225396
Spine -6.461023 -3.264129 -0.037198
Head -3.532571 0.553912 3.388913
LeftShoulder -24.059476 3.351465 13.979729
LeftArm -55.362880 6.407710 -87.176833
LeftForeArm 21.972803 -0.000000 -2.103488
LeftHand -4.787556 -0.000000 -44.242782
LeftHandThumb1 -26.253704 0.000000 33.147579
RightShoulder -29.147301 -37.025800 2.224436
RightArm -17.513592 -18.005118 86.436520
RightForeArm -43.789708 -0.000000 6.809312
RightHand 1.939248 -0.000000 46.653235
RightHandThumb1 -24.326973 -0.000000 -32.862282
LeftUpLeg 2.536772 9.075600 3.021288
LeftLeg -6.166880 -0.000000 0.000000
LeftFoot -20.692941 27.792616 -13.126710
LeftToeBase 26.814375 -0.000000 -0.000000
RightUpLeg 0.112393 -11.954100 -0.127289
RightLeg -2.148279 -0.000000 0.000000
RightFoot -20.309914 -20.637735 17.617731
RightToeBase 25.321323 -0.000000 -0.000000
302
root 18.810989 35.537289 -21.355873 -174.005423 -1.221788 -178.232778
Spine -6.461031 -3.259920 -0.033510
Head -3.640687 0.553617 3.345469
LeftShoulder -24.046446 3.315130 13.962644
LeftArm -55.358720 6.389177 -87.099329
LeftForeArm 21.909760 -0.000000 -2.112318
LeftHand -4.821382 -0.000000 -44.275920
LeftHandThumb1 -26.253704 0.000000 33.147579
RightShoulder -29.146646 -37.037089 2.227461
RightArm -17.487369 -17.932293 86.450717
RightForeArm -43.798135 -0.000000 6.830981
RightHand 1.913370 0.000000 46.639133
RightHandThumb1 -24.326973 -0.000000 -32.862282
LeftUpLeg 2.456546 9.094310 2.998327
LeftLeg -6.198847 -0.000000 0.000000
LeftFoot -20.648528 27.790027 -13.115000
LeftToeBase 26.762691 -0.000000 -0.000000
RightUpLeg 0.030138 -11.962860 -0.117444
RightLeg -2.159089 -0.000000 0.000000
RightFoot -20.297040 -20.652304 17.599777
RightToeBase 25.346517 -0.000000 -0.000000
303
root 18.810865 35.537662 -21.344760 -173.947602 -1.248160 -178.235370
Spine -6.437435 -3.272342 -0.017980
Head -3.773673 0.562776 3.294127
LeftShoulder -24.050197 3.251364 13.914779
LeftArm -55.364844 6.367663 -86.986755
LeftForeArm 21.892458 -0.000000 -2.099140
LeftHand -4.818883 -0.000000 -44.321646
LeftHandThumb1 -26.253704 0.000000 33.147579
RightShoulder -29.138723 -37.028864 2.234982
RightArm -17.440028 -17.853071 86.455796
RightForeArm -43.804194 -0.000000 6.826390
RightHand 1.830888 -0.000000 46.594430
RightHandThumb1 -24.326973 -0.000000 -32.862282
LeftUpLeg 2.385572 9.105739 2.985239
LeftLeg -6.222459 -0.000000 0.000000
LeftFoot -20.608873 27.768307 -13.075775
LeftToeBase 26.835612 -0.000000 -0.000000
RightUpLeg -0.038693 -11.991567 -0.103444
RightLeg -2.169153 -0.000000 0.000000
RightFoot -20.281940 -20.649324 17.582553
RightToeBase 25.333386 -0.000000 -0.000000
304
root 18.809978 35.538108 -21.333742 -173.888918 -1.278340 -178.236984
Spine -6.417631 -3.281219 0.002486
Head -3.884766 0.533228 3.223438
LeftShoulder -24.048154 3.172955 13.869680
LeftArm -55.365908 6.358770 -86.907524
LeftForeArm 21.860428 0.000000 -2.107457
LeftHand -4.856206 -0.000000 -44.357382
LeftHandThumb1 -26.253704 0.000000 33.147579
RightShoulder -29.115047 -36.982602 2.225280
RightArm -17.428616 -17.789973 86.491284
RightForeArm -43.881235 -0.000000 6.826016
RightHand 1.854545 -0.000000 46.606121
RightHandThumb1 -24.326973 -0.000000 -32.862282
LeftUpLeg 2.309087 9.104898 2.974917
LeftLeg -6.231217 -0.000000 0.000000
LeftFoot -20.583787 27.731031 -13.051466
LeftToeBase 26.831289 -0.000000 -0.000000
RightUpLeg -0.103351 -12.026835 -0.088442
RightLeg -2.189876 -0.000000 0.000000
RightFoot -20.251025 -20.658570 17.566848
RightToeBase 25.359582 -0.000000 -0.000000
305
root 18.807520 35.538042 -21.322605 -173.823243 -1.305631 -178.256188
Spine -6.405126 -3.288957 -0.005294
Head -3.999315 0.508427 3.165569
LeftShoulder -24.066747 3.119533 13.825957
LeftArm -55.319350 6.352761 -86.810329
LeftForeArm 21.863264 -0.000000 -2.115561
LeftHand -4.893182 0.000000 -44.411979
LeftHandThumb1 -26.253704 0.000000 33.147579
RightShoulder -29.082770 -36.922618 2.222750
RightArm -17.419702 -17.756163 86.546249
RightForeArm -43.994275 -0.000000 6.829991
RightHand 1.863925 -0.000000 46.624822
RightHandThumb1 -24.326973 -0.000000 -32.862282
LeftUpLeg 2.224273 9.129405 2.937797
LeftLeg -6.246218 -0.000000 0.000000
LeftFoot -20.545982 27.709962 -13.038571
LeftToeBase 26.845983 -0.000000 -0.000000
RightUpLeg -0.174942 -12.051982 -0.095182
RightLeg -2.206698 -0.000000 0.000000
RightFoot -20.236372 -20.652681 17.532402
RightToeBase 25.367835 -0.000000 -0.000000
306
root 18.807814 35.538198 -21.311364 -173.748300 -1.345645 -178.257852
Spine -6.406526 -3.307106 0.012356
Head -4.106873 0.455273 3.123745
LeftShoulder -24.075906 3.066364 13.780862
LeftArm -55.285868 6.416347 -86.846772
LeftForeArm 21.775675 0.000000 -2.089582
LeftHand -4.865566 -0.000000 -44.452129
LeftHandThumb1 -26.253704 0.000000 33.147579
RightShoulder -29.031374 -36.842663 2.197792
RightArm -17.428384 -17.734755 86.618177
RightForeArm -44.087162 0.000000 6.841088
RightHand 1.833531 -0.000000 46.566431
RightHandThumb1 -24.326973 -0.000000 -32.862282
LeftUpLeg 2.131314 9.127321 2.927694
LeftLeg -6.259988 -0.000000 0.000000
LeftFoot -20.516190 27.663835 -13.015284
LeftToeBase 26.844490 -0.000000 -0.000000
RightUpLeg -0.256865 -12.115441 -0.073942
RightLeg -2.225047 -0.000000 0.000000
RightFoot -20.209421 -20.630652 17.522762
RightToeBase 25.346351 -0.000000 -0.000000
307
root 18.806566 35.537334 -21.301055 -173.677629 -1.374626 -178.280446
Spine -6.409986 -3.329136 0.010903
Head -4.201400 0.443394 3.063388
LeftShoulder -24.076023 3.002257 13.764109
LeftArm -55.263246 6.465578 -86.939223
LeftForeArm 21.666338 -0.000000 -2.072272
LeftHand -4.816074 0.000000 -44.435570
LeftHandThumb1 -26.253704 0.000000 33.147579
RightShoulder -29.011081 -36.789964 2.188776
RightArm -17.388928 -17.821728 86.702578
RightForeArm -44.103288 -0.000000 6.846932
RightHand 1.863066 -0.000000 46.445471
RightHandThumb1 -24.326973 -0.000000 -32.862282
LeftUpLeg 2.049396 9.135249 2.887789
LeftLeg -6.287853 -0.000000 0.000000
LeftFoot -20.474157 27.663718 -12.981058
LeftToeBase 26.866017 -0.000000 -0.000000
RightUpLeg -0.317890 -12.158873 -0.077858
RightLeg -2.271503 -0.000000 0.000000
RightFoot -20.184259 -20.637583 17.460844
RightToeBase 25.374974 -0.000000 -0.000000
308
root 18.807045 35.537071 -21.290315 -173.602681 -1.415624 -178.280637
Spine -6.419075 -3.336152 0.030323
Head -4.308262 0.363483 3.003479
LeftShoulder -24.064472 2.936505 13.728137
LeftArm -55.229341 6.553029 -87.068103
LeftForeArm 21.480222 -0.000000 -2.041811
LeftHand -4.786873 0.000000 -44.421798
LeftHandThumb1 -26.253704 0.000000 33.147579
RightShoulder -28.988832 -36.697529 2.187905
RightArm -17.375172 -17.880300 86.778949
RightForeArm -44.032792 -0.000000 6.837534
RightHand 1.815365 -0.000000 46.459368
RightHandThumb1 -24.326973 -0.000000 -32.862282
LeftUpLeg 1.965862 9.120551 2.876438
LeftLeg -6.322881 -0.000000 0.000000
LeftFoot -20.441141 27.656953 -12.955563
LeftToeBase 26.906462 -0.000000 -0.000000
RightUpLeg -0.393463 -12.201560 -0.054352
RightLeg -2.296251 -0.000000 0.000000
RightFoot -20.162575 -20.638962 17.514550
RightToeBase 25.256486 -0.000000 -0.000000
309
root 18.807110 35.536553 -21.281010 -173.539173 -1.457393 -178.284508
Spine -6.423352 -3.359420 0.038517
Head -4.396068 0.296809 2.964149
LeftShoulder -24.057163 2.868236 13.716210
LeftArm -55.196746 6.632593 -87.224635
LeftForeArm 21.251466 -0.000000 -2.037890
LeftHand -4.773646 0.000000 -44.398080
LeftHandThumb1 -26.253704 0.000000 33.147579
RightShoulder -28.938824 -36.619142 2.180867
RightArm -17.349938 -17.984840 86.874016
RightForeArm -43.887367 -0.000000 6.867894
RightHand 1.751807 0.000000 46.527702
RightHandThumb1 -24.326973 -0.000000 -32.862282
LeftUpLeg 1.899741 9.101863 2.862690
LeftLeg -6.365465 -0.000000 0.000000
LeftFoot -20.403313 27.657325 -12.931960
LeftToeBase 26.921491 -0.000000 -0.000000
RightUpLeg -0.452012 -12.223808 -0.035010
RightLeg -2.335047 -0.000000 0.000000
RightFoot -20.147991 -20.690443 17.430254
RightToeBase 25.349106 -0.000000 -0.000000
310
root 18.805718 35.537068 -21.271990 -173.476761 -1.481454 -178.293253
Spine -6.437233 -3.350018 0.047107
Head -4.448877 0.231389 2.908723
LeftShoulder -24.024228 2.816728 13.686641
LeftArm -55.145904 6.732983 -87.429048
LeftForeArm 20.913549 -0.000000 -2.039586
LeftHand -4.786827 0.000000 -44.447771
LeftHandThumb1 -26.253704 0.000000 33.147579
RightShoulder -28.895161 -36.537268 2.178228
RightArm -17.335835 -18.003683 86.945281
RightForeArm -43.864014 -0.000000 6.906385
RightHand 1.784721 -0.000000 46.466895
RightHandThumb1 -24.326973 -0.000000 -32.862282
LeftUpLeg 1.835800 9.107953 2.841228
LeftLeg -6.403139 -0.000000 0.000000
LeftFoot -20.353795 27.641362 -12.915169
LeftToeBase 26.921202 -0.000000 -0.000000
RightUpLeg -0.506653 -12.248314 -0.029850
RightLeg -2.372436 -0.000000 0.000000
RightFoot -20.125850 -20.694626 17.403350
RightToeBase 25.452521 -0.000000 -0.000000
